<svg width="96" height="96" xmlns="http://www.w3.org/2000/svg" xmlns:xlink="http://www.w3.org/1999/xlink" xml:space="preserve" overflow="hidden"><defs><clipPath id="clip0"><rect x="437" y="93" width="96" height="96"/></clipPath></defs><g clip-path="url(#clip0)" transform="translate(-437 -93)"><path d="M522.5 168.6 510 156.1C508.3 154.4 506 153.8 503.8 154.2L499.4 149.8C503.3 144.8 505.6 138.4 505.6 131.6 505.6 115.1 492.1 101.6 475.6 101.6 459.1 101.6 445.6 115.1 445.6 131.6 445.6 148.1 459.1 161.6 475.6 161.6 482.4 161.6 488.7 159.3 493.8 155.4L498.2 159.8C497.8 162 498.4 164.3 500.1 166L512.6 178.5C514 179.9 515.8 180.6 517.6 180.6 519.4 180.6 521.2 179.9 522.6 178.5 525.2 175.7 525.2 171.3 522.5 168.6ZM475.5 155.5C462.3 155.5 451.5 144.7 451.5 131.5 451.5 118.3 462.3 107.5 475.5 107.5 488.7 107.5 499.5 118.3 499.5 131.5 499.5 144.7 488.7 155.5 475.5 155.5Z" fill="#7F7F7F"/></g></svg>